# xmcd
#
# Track frame offsets: 
#        150
#        13155
#        29406
#        45621
#        62645
#        76389
#        91475
#        105528
#        130639
#        149499
#        168435
#        185556
#        222117
#
# Disc length: 3101 seconds
#
# Revision: 1
# Processed by: cddbd v1.5.2PL0 Copyright (c) Steve Scherf et al.
# Submitted via: ExactAudioCopy v0.90b4
#
DISCID=b10c1b0d
DTITLE=Megan Washington - I Believe You Liar
DYEAR=2010
DGENRE=
TTITLE0=1997
TTITLE1=Navy Blues
TTITLE2=Cement
TTITLE3=Underground
TTITLE4=Rich Kids
TTITLE5=Sunday Best
TTITLE6=Clementine
TTITLE7=Lover/Soldier
TTITLE8=Spanish Temper
TTITLE9=The Hardest Part
TTITLE10=How To Tame Lions
TTITLE11=I Believe You Liar
TTITLE12=Data
EXTD=
EXTT0=
EXTT1=
EXTT2=
EXTT3=
EXTT4=
EXTT5=
EXTT6=
EXTT7=
EXTT8=
EXTT9=
EXTT10=
EXTT11=
EXTT12=
PLAYORDER=
